<?xml version="1.0" standalone="no"?>
<!DOCTYPE svg PUBLIC "-//W3C//DTD SVG 20010904//EN"
 "http://www.w3.org/TR/2001/REC-SVG-20010904/DTD/svg10.dtd">
<svg version="1.0" xmlns="http://www.w3.org/2000/svg"
 width="358.000000pt" height="340.000000pt" viewBox="0 0 358.000000 340.000000"
 preserveAspectRatio="xMidYMid meet">

<g transform="translate(0.000000,340.000000) scale(0.100000,-0.100000)"
fill="#000000" stroke="none">
<path d="M2985 2403 c-82 -8 -151 -16 -152 -17 -2 -1 -28 -119 -58 -261 -31
-143 -58 -261 -60 -263 -4 -5 -4 -6 -70 266 l-57 232 -32 -5 c-45 -7 -268 -35
-283 -35 -7 0 -13 -6 -13 -13 0 -8 71 -200 159 -428 l158 -414 11 -215 c10
-203 9 -217 -8 -247 -11 -18 -16 -34 -12 -37 4 -2 81 9 172 25 91 16 169 29
174 29 6 0 -5 15 -23 34 l-33 34 -10 194 -10 193 166 461 c91 253 166 466 166
472 0 7 -8 11 -17 11 -10 -1 -85 -8 -168 -16z"/>
<path d="M1780 2273 l-225 -24 -62 -62 -63 -61 0 -591 0 -591 54 -53 55 -54
248 29 248 29 57 60 58 60 0 592 0 591 -57 51 c-31 28 -64 50 -72 50 -9 -1
-117 -12 -241 -26z m111 -403 c3 -91 7 -294 8 -453 l1 -287 -24 -10 c-14 -5
-65 -10 -113 -12 l-88 -3 -3 446 c-2 376 0 448 12 458 15 13 122 30 171 27
l30 -1 6 -165z"/>
<path d="M1195 2199 c-38 -4 -97 -10 -130 -14 -33 -3 -163 -17 -290 -30 -126
-14 -235 -25 -241 -25 -9 0 -49 -269 -41 -276 1 0 63 7 137 17 74 10 141 19
148 19 9 0 12 -121 12 -570 l0 -570 120 0 120 0 2 582 3 583 144 18 c80 10
147 19 149 22 9 8 -42 255 -52 254 -6 -1 -42 -5 -81 -10z"/>
</g>
</svg>
